# Blender v2.90.0 OBJ File: ''
# www.blender.org
mtllib 0.mtl
o Text
v 0.020000 0.582580 -0.247759
v 0.020000 0.061372 -0.247759
v 0.020000 0.052057 -0.247359
v 0.020000 0.043552 -0.246161
v 0.020000 0.035858 -0.244165
v 0.020000 0.028973 -0.241369
v 0.020000 0.022898 -0.237775
v 0.020000 0.017633 -0.233383
v 0.020000 0.013178 -0.228191
v 0.020000 0.009533 -0.222201
v 0.020000 0.006698 -0.215413
v 0.020000 0.004673 -0.207825
v 0.020000 0.003458 -0.199439
v 0.020000 0.003053 -0.190255
v 0.020000 0.003053 0.008767
v 0.020000 0.003458 0.017821
v 0.020000 0.004673 0.026088
v 0.020000 0.006698 0.033568
v 0.020000 0.009533 0.040260
v 0.020000 0.013178 0.046165
v 0.020000 0.017633 0.051283
v 0.020000 0.022898 0.055613
v 0.020000 0.028973 0.059156
v 0.020000 0.035858 0.061912
v 0.020000 0.043552 0.063880
v 0.020000 0.052057 0.065061
v 0.020000 0.061372 0.065455
v 0.020000 0.582580 0.065455
v 0.020000 0.591960 0.065053
v 0.020000 0.600524 0.063846
v 0.020000 0.608273 0.061836
v 0.020000 0.615206 0.059020
v 0.020000 0.621323 0.055401
v 0.020000 0.626625 0.050977
v 0.020000 0.631111 0.045749
v 0.020000 0.634782 0.039716
v 0.020000 0.637637 0.032880
v 0.020000 0.639676 0.025238
v 0.020000 0.640899 0.016793
v 0.020000 0.641307 0.007543
v 0.020000 0.641307 -0.190255
v 0.020000 0.640899 -0.199439
v 0.020000 0.639676 -0.207825
v 0.020000 0.637637 -0.215413
v 0.020000 0.634782 -0.222201
v 0.020000 0.631111 -0.228191
v 0.020000 0.626625 -0.233383
v 0.020000 0.621323 -0.237775
v 0.020000 0.615206 -0.241369
v 0.020000 0.608273 -0.244165
v 0.020000 0.600524 -0.246161
v 0.020000 0.591960 -0.247359
v 0.020000 0.085027 -0.028346
v 0.020000 0.085027 -0.154366
v 0.020000 0.559333 -0.154366
v 0.020000 0.559333 -0.028346
v -0.020000 0.582580 -0.247759
v -0.020000 0.061372 -0.247759
v -0.020000 0.052057 -0.247359
v -0.020000 0.043552 -0.246161
v -0.020000 0.035858 -0.244165
v -0.020000 0.028973 -0.241369
v -0.020000 0.022898 -0.237775
v -0.020000 0.017633 -0.233383
v -0.020000 0.013178 -0.228191
v -0.020000 0.009533 -0.222201
v -0.020000 0.006698 -0.215413
v -0.020000 0.004673 -0.207825
v -0.020000 0.003458 -0.199439
v -0.020000 0.003053 -0.190255
v -0.020000 0.003053 0.008767
v -0.020000 0.003458 0.017821
v -0.020000 0.004673 0.026088
v -0.020000 0.006698 0.033568
v -0.020000 0.009533 0.040260
v -0.020000 0.013178 0.046165
v -0.020000 0.017633 0.051283
v -0.020000 0.022898 0.055613
v -0.020000 0.028973 0.059156
v -0.020000 0.035858 0.061912
v -0.020000 0.043552 0.063880
v -0.020000 0.052057 0.065061
v -0.020000 0.061372 0.065455
v -0.020000 0.582580 0.065455
v -0.020000 0.591960 0.065053
v -0.020000 0.600524 0.063846
v -0.020000 0.608273 0.061836
v -0.020000 0.615206 0.059020
v -0.020000 0.621323 0.055401
v -0.020000 0.626625 0.050977
v -0.020000 0.631111 0.045749
v -0.020000 0.634782 0.039716
v -0.020000 0.637637 0.032880
v -0.020000 0.639676 0.025238
v -0.020000 0.640899 0.016793
v -0.020000 0.641307 0.007543
v -0.020000 0.641307 -0.190255
v -0.020000 0.640899 -0.199439
v -0.020000 0.639676 -0.207825
v -0.020000 0.637637 -0.215413
v -0.020000 0.634782 -0.222201
v -0.020000 0.631111 -0.228191
v -0.020000 0.626625 -0.233383
v -0.020000 0.621323 -0.237775
v -0.020000 0.615206 -0.241369
v -0.020000 0.608273 -0.244165
v -0.020000 0.600524 -0.246161
v -0.020000 0.591960 -0.247359
v -0.020000 0.085027 -0.028346
v -0.020000 0.085027 -0.154366
v -0.020000 0.559333 -0.154366
v -0.020000 0.559333 -0.028346
v -0.020000 0.582580 -0.247759
v 0.020000 0.582580 -0.247759
v -0.020000 0.061372 -0.247759
v 0.020000 0.061372 -0.247759
v -0.020000 0.052057 -0.247359
v 0.020000 0.052057 -0.247359
v -0.020000 0.043552 -0.246161
v 0.020000 0.043552 -0.246161
v -0.020000 0.035858 -0.244165
v 0.020000 0.035858 -0.244165
v -0.020000 0.028973 -0.241369
v 0.020000 0.028973 -0.241369
v -0.020000 0.022898 -0.237775
v 0.020000 0.022898 -0.237775
v -0.020000 0.017633 -0.233383
v 0.020000 0.017633 -0.233383
v -0.020000 0.013178 -0.228191
v 0.020000 0.013178 -0.228191
v -0.020000 0.009533 -0.222201
v 0.020000 0.009533 -0.222201
v -0.020000 0.006698 -0.215413
v 0.020000 0.006698 -0.215413
v -0.020000 0.004673 -0.207825
v 0.020000 0.004673 -0.207825
v -0.020000 0.003458 -0.199439
v 0.020000 0.003458 -0.199439
v -0.020000 0.003053 -0.190255
v 0.020000 0.003053 -0.190255
v -0.020000 0.003053 0.008767
v 0.020000 0.003053 0.008767
v -0.020000 0.003458 0.017821
v 0.020000 0.003458 0.017821
v -0.020000 0.004673 0.026088
v 0.020000 0.004673 0.026088
v -0.020000 0.006698 0.033568
v 0.020000 0.006698 0.033568
v -0.020000 0.009533 0.040260
v 0.020000 0.009533 0.040260
v -0.020000 0.013178 0.046165
v 0.020000 0.013178 0.046165
v -0.020000 0.017633 0.051283
v 0.020000 0.017633 0.051283
v -0.020000 0.022898 0.055613
v 0.020000 0.022898 0.055613
v -0.020000 0.028973 0.059156
v 0.020000 0.028973 0.059156
v -0.020000 0.035858 0.061912
v 0.020000 0.035858 0.061912
v -0.020000 0.043552 0.063880
v 0.020000 0.043552 0.063880
v -0.020000 0.052057 0.065061
v 0.020000 0.052057 0.065061
v -0.020000 0.061372 0.065455
v 0.020000 0.061372 0.065455
v -0.020000 0.582580 0.065455
v 0.020000 0.582580 0.065455
v -0.020000 0.591960 0.065053
v 0.020000 0.591960 0.065053
v -0.020000 0.600524 0.063846
v 0.020000 0.600524 0.063846
v -0.020000 0.608273 0.061836
v 0.020000 0.608273 0.061836
v -0.020000 0.615206 0.059020
v 0.020000 0.615206 0.059020
v -0.020000 0.621323 0.055401
v 0.020000 0.621323 0.055401
v -0.020000 0.626625 0.050977
v 0.020000 0.626625 0.050977
v -0.020000 0.631111 0.045749
v 0.020000 0.631111 0.045749
v -0.020000 0.634782 0.039716
v 0.020000 0.634782 0.039716
v -0.020000 0.637637 0.032880
v 0.020000 0.637637 0.032880
v -0.020000 0.639676 0.025238
v 0.020000 0.639676 0.025238
v -0.020000 0.640899 0.016793
v 0.020000 0.640899 0.016793
v -0.020000 0.641307 0.007543
v 0.020000 0.641307 0.007543
v -0.020000 0.641307 -0.190255
v 0.020000 0.641307 -0.190255
v -0.020000 0.640899 -0.199439
v 0.020000 0.640899 -0.199439
v -0.020000 0.639676 -0.207825
v 0.020000 0.639676 -0.207825
v -0.020000 0.637637 -0.215413
v 0.020000 0.637637 -0.215413
v -0.020000 0.634782 -0.222201
v 0.020000 0.634782 -0.222201
v -0.020000 0.631111 -0.228191
v 0.020000 0.631111 -0.228191
v -0.020000 0.626625 -0.233383
v 0.020000 0.626625 -0.233383
v -0.020000 0.621323 -0.237775
v 0.020000 0.621323 -0.237775
v -0.020000 0.615206 -0.241369
v 0.020000 0.615206 -0.241369
v -0.020000 0.608273 -0.244165
v 0.020000 0.608273 -0.244165
v -0.020000 0.600524 -0.246161
v 0.020000 0.600524 -0.246161
v -0.020000 0.591960 -0.247359
v 0.020000 0.591960 -0.247359
v -0.020000 0.085027 -0.028346
v 0.020000 0.085027 -0.028346
v -0.020000 0.085027 -0.154366
v 0.020000 0.085027 -0.154366
v -0.020000 0.559333 -0.154366
v 0.020000 0.559333 -0.154366
v -0.020000 0.559333 -0.028346
v 0.020000 0.559333 -0.028346
vt 0.690909 0.000000
vt 0.727273 0.000000
vt 0.709091 0.000000
vt 0.745455 0.000000
vt 0.763636 0.000000
vt 0.672727 0.000000
vt 0.781818 0.000000
vt 0.654545 0.000000
vt 0.800000 0.000000
vt 0.636364 0.000000
vt 0.818182 0.000000
vt 0.618182 0.000000
vt 0.836364 0.000000
vt 0.600000 0.000000
vt 0.854545 0.000000
vt 0.581818 0.000000
vt 0.872727 0.000000
vt 0.563636 0.000000
vt 0.890909 0.000000
vt 0.545455 0.000000
vt 0.909091 0.000000
vt 0.527273 0.000000
vt 0.927273 0.000000
vt 0.509091 0.000000
vt 0.000000 0.000000
vt 0.490909 0.000000
vt 0.472727 0.000000
vt 1.000000 0.000000
vt 0.981818 0.000000
vt 0.018182 0.000000
vt 0.945455 0.000000
vt 0.963636 0.000000
vt 0.454545 0.000000
vt 0.036364 0.000000
vt 0.436364 0.000000
vt 0.054545 0.000000
vt 0.418182 0.000000
vt 0.072727 0.000000
vt 0.400000 0.000000
vt 0.090909 0.000000
vt 0.381818 0.000000
vt 0.109091 0.000000
vt 0.363636 0.000000
vt 0.127273 0.000000
vt 0.145455 0.000000
vt 0.345455 0.000000
vt 0.163636 0.000000
vt 0.327273 0.000000
vt 0.181818 0.000000
vt 0.309091 0.000000
vt 0.200000 0.000000
vt 0.290909 0.000000
vt 0.218182 0.000000
vt 0.272727 0.000000
vt 0.236364 0.000000
vt 0.254545 0.000000
vt 0.727273 0.000000
vt 0.690909 0.000000
vt 0.709091 0.000000
vt 0.745455 0.000000
vt 0.763636 0.000000
vt 0.672727 0.000000
vt 0.781818 0.000000
vt 0.654545 0.000000
vt 0.800000 0.000000
vt 0.636364 0.000000
vt 0.818182 0.000000
vt 0.618182 0.000000
vt 0.836364 0.000000
vt 0.600000 0.000000
vt 0.854545 0.000000
vt 0.581818 0.000000
vt 0.872727 0.000000
vt 0.563636 0.000000
vt 0.890909 0.000000
vt 0.545455 0.000000
vt 0.909091 0.000000
vt 0.527273 0.000000
vt 0.927273 0.000000
vt 0.509091 0.000000
vt 0.000000 0.000000
vt 0.490909 0.000000
vt 1.000000 0.000000
vt 0.472727 0.000000
vt 0.981818 0.000000
vt 0.018182 0.000000
vt 0.945455 0.000000
vt 0.963636 0.000000
vt 0.454545 0.000000
vt 0.036364 0.000000
vt 0.436364 0.000000
vt 0.054545 0.000000
vt 0.418182 0.000000
vt 0.072727 0.000000
vt 0.400000 0.000000
vt 0.090909 0.000000
vt 0.381818 0.000000
vt 0.109091 0.000000
vt 0.363636 0.000000
vt 0.127273 0.000000
vt 0.145455 0.000000
vt 0.345455 0.000000
vt 0.163636 0.000000
vt 0.327273 0.000000
vt 0.181818 0.000000
vt 0.309091 0.000000
vt 0.200000 0.000000
vt 0.290909 0.000000
vt 0.218182 0.000000
vt 0.272727 0.000000
vt 0.236364 0.000000
vt 0.254545 0.000000
vt 0.019231 1.000000
vt 0.000000 0.000000
vt 0.000000 1.000000
vt 0.038462 1.000000
vt 0.019231 0.000000
vt 0.057692 1.000000
vt 0.038462 0.000000
vt 0.076923 1.000000
vt 0.057692 0.000000
vt 0.096154 1.000000
vt 0.076923 0.000000
vt 0.115385 1.000000
vt 0.096154 0.000000
vt 0.134615 1.000000
vt 0.115385 0.000000
vt 0.153846 1.000000
vt 0.134615 0.000000
vt 0.173077 1.000000
vt 0.153846 0.000000
vt 0.192308 1.000000
vt 0.173077 0.000000
vt 0.211538 1.000000
vt 0.192308 0.000000
vt 0.230769 1.000000
vt 0.211538 0.000000
vt 0.250000 1.000000
vt 0.230769 0.000000
vt 0.269231 1.000000
vt 0.250000 0.000000
vt 0.288462 1.000000
vt 0.269231 0.000000
vt 0.307692 1.000000
vt 0.288462 0.000000
vt 0.326923 1.000000
vt 0.307692 0.000000
vt 0.346154 1.000000
vt 0.326923 0.000000
vt 0.365385 1.000000
vt 0.346154 0.000000
vt 0.384615 1.000000
vt 0.365385 0.000000
vt 0.403846 1.000000
vt 0.384615 0.000000
vt 0.423077 1.000000
vt 0.403846 0.000000
vt 0.442308 1.000000
vt 0.423077 0.000000
vt 0.461538 1.000000
vt 0.442308 0.000000
vt 0.480769 1.000000
vt 0.461538 0.000000
vt 0.500000 1.000000
vt 0.480769 0.000000
vt 0.519231 1.000000
vt 0.500000 0.000000
vt 0.538462 1.000000
vt 0.519231 0.000000
vt 0.557692 1.000000
vt 0.538462 0.000000
vt 0.576923 1.000000
vt 0.557692 0.000000
vt 0.596154 1.000000
vt 0.576923 0.000000
vt 0.615385 1.000000
vt 0.596154 0.000000
vt 0.634615 1.000000
vt 0.615385 0.000000
vt 0.653846 1.000000
vt 0.634615 0.000000
vt 0.673077 1.000000
vt 0.653846 0.000000
vt 0.692308 1.000000
vt 0.673077 0.000000
vt 0.711538 1.000000
vt 0.692308 0.000000
vt 0.730769 1.000000
vt 0.711538 0.000000
vt 0.750000 1.000000
vt 0.730769 0.000000
vt 0.769231 1.000000
vt 0.750000 0.000000
vt 0.788462 1.000000
vt 0.769231 0.000000
vt 0.807692 1.000000
vt 0.788462 0.000000
vt 0.826923 1.000000
vt 0.807692 0.000000
vt 0.846154 1.000000
vt 0.826923 0.000000
vt 0.865385 1.000000
vt 0.846154 0.000000
vt 0.884615 1.000000
vt 0.865385 0.000000
vt 0.903846 1.000000
vt 0.884615 0.000000
vt 0.923077 1.000000
vt 0.903846 0.000000
vt 0.942308 1.000000
vt 0.923077 0.000000
vt 0.961538 1.000000
vt 0.942308 0.000000
vt 0.980769 1.000000
vt 0.961538 0.000000
vt 1.000000 1.000000
vt 0.980769 0.000000
vt 0.250000 1.000000
vt 0.000000 0.000000
vt 0.000000 1.000000
vt 0.500000 1.000000
vt 0.250000 0.000000
vt 0.750000 1.000000
vt 0.500000 0.000000
vt 1.000000 1.000000
vt 0.750000 0.000000
vt 1.000000 0.000000
vt 1.000000 0.000000
vn 1.0000 0.0000 -0.0000
vn -1.0000 0.0000 0.0000
vn 0.0000 -0.0214 -0.9998
vn 0.0000 0.0212 -0.9998
vn 0.0000 -0.0913 -0.9958
vn 0.0000 -0.1956 -0.9807
vn 0.0000 -0.3143 -0.9493
vn 0.0000 -0.4439 -0.8961
vn 0.0000 -0.5768 -0.8169
vn 0.0000 -0.7022 -0.7120
vn 0.0000 -0.8092 -0.5875
vn 0.0000 -0.8910 -0.4539
vn 0.0000 -0.9466 -0.3223
vn 0.0000 -0.9796 -0.2010
vn 0.0000 -0.9956 -0.0938
vn 0.0000 -0.9998 -0.0220
vn 0.0000 -0.9997 0.0223
vn 0.0000 -0.9955 0.0952
vn 0.0000 -0.9790 0.2037
vn 0.0000 -0.9452 0.3264
vn 0.0000 -0.8884 0.4590
vn 0.0000 -0.8053 0.5929
vn 0.0000 -0.6971 0.7169
vn 0.0000 -0.5713 0.8207
vn 0.0000 -0.4389 0.8985
vn 0.0000 -0.3103 0.9506
vn 0.0000 -0.1930 0.9812
vn 0.0000 -0.0900 0.9959
vn 0.0000 -0.0211 0.9998
vn 0.0000 0.0214 0.9998
vn 0.0000 0.0913 0.9958
vn 0.0000 0.1957 0.9807
vn 0.0000 0.3144 0.9493
vn 0.0000 0.4439 0.8961
vn 0.0000 0.5768 0.8169
vn 0.0000 0.7022 0.7119
vn 0.0000 0.8093 0.5874
vn 0.0000 0.8910 0.4538
vn 0.0000 0.9466 0.3223
vn 0.0000 0.9796 0.2009
vn 0.0000 0.9956 0.0938
vn 0.0000 0.9998 0.0220
vn 0.0000 0.9997 -0.0222
vn 0.0000 0.9955 -0.0945
vn 0.0000 0.9793 -0.2023
vn 0.0000 0.9459 -0.3243
vn 0.0000 0.8898 -0.4563
vn 0.0000 0.9459 -0.3244
vn 0.0000 0.8073 -0.5901
vn 0.0000 0.8898 -0.4564
vn 0.0000 0.6997 -0.7144
vn 0.0000 0.5741 -0.8188
vn 0.0000 0.4415 -0.8973
vn 0.0000 0.3124 -0.9499
vn 0.0000 0.4414 -0.8973
vn 0.0000 0.1943 -0.9809
vn 0.0000 0.0906 -0.9959
vn 0.0000 0.7071 0.7071
vn 0.0000 0.7071 -0.7071
vn 0.0000 -0.7071 0.7071
vn 0.0000 -0.7071 -0.7071
usemtl None
s off
f 39/1/1 41/2/1 40/3/1
f 39/1/1 42/4/1 41/2/1
f 39/1/1 43/5/1 42/4/1
f 38/6/1 43/5/1 39/1/1
f 38/6/1 44/7/1 43/5/1
f 37/8/1 44/7/1 38/6/1
f 37/8/1 45/9/1 44/7/1
f 36/10/1 45/9/1 37/8/1
f 36/10/1 46/11/1 45/9/1
f 35/12/1 46/11/1 36/10/1
f 35/12/1 47/13/1 46/11/1
f 34/14/1 47/13/1 35/12/1
f 34/14/1 48/15/1 47/13/1
f 33/16/1 48/15/1 34/14/1
f 33/16/1 49/17/1 48/15/1
f 32/18/1 49/17/1 33/16/1
f 32/18/1 50/19/1 49/17/1
f 31/20/1 50/19/1 32/18/1
f 31/20/1 51/21/1 50/19/1
f 30/22/1 51/21/1 31/20/1
f 30/22/1 52/23/1 51/21/1
f 29/24/1 52/23/1 30/22/1
f 29/24/1 1/25/1 52/23/1
f 28/26/1 1/25/1 29/24/1
f 27/27/1 56/28/1 28/26/1
f 56/28/1 1/25/1 28/26/1
f 56/28/1 55/29/1 1/25/1
f 55/29/1 2/30/1 1/25/1
f 27/27/1 53/31/1 56/28/1
f 54/32/1 2/30/1 55/29/1
f 27/27/1 54/32/1 53/31/1
f 27/27/1 2/30/1 54/32/1
f 26/33/1 2/30/1 27/27/1
f 26/33/1 3/34/1 2/30/1
f 25/35/1 3/34/1 26/33/1
f 25/35/1 4/36/1 3/34/1
f 24/37/1 4/36/1 25/35/1
f 24/37/1 5/38/1 4/36/1
f 23/39/1 5/38/1 24/37/1
f 23/39/1 6/40/1 5/38/1
f 22/41/1 6/40/1 23/39/1
f 22/41/1 7/42/1 6/40/1
f 21/43/1 7/42/1 22/41/1
f 21/43/1 8/44/1 7/42/1
f 21/43/1 9/45/1 8/44/1
f 20/46/1 9/45/1 21/43/1
f 20/46/1 10/47/1 9/45/1
f 19/48/1 10/47/1 20/46/1
f 19/48/1 11/49/1 10/47/1
f 18/50/1 11/49/1 19/48/1
f 18/50/1 12/51/1 11/49/1
f 17/52/1 12/51/1 18/50/1
f 17/52/1 13/53/1 12/51/1
f 16/54/1 13/53/1 17/52/1
f 16/54/1 14/55/1 13/53/1
f 15/56/1 14/55/1 16/54/1
f 97/57/2 95/58/2 96/59/2
f 98/60/2 95/58/2 97/57/2
f 99/61/2 95/58/2 98/60/2
f 99/61/2 94/62/2 95/58/2
f 100/63/2 94/62/2 99/61/2
f 100/63/2 93/64/2 94/62/2
f 101/65/2 93/64/2 100/63/2
f 101/65/2 92/66/2 93/64/2
f 102/67/2 92/66/2 101/65/2
f 102/67/2 91/68/2 92/66/2
f 103/69/2 91/68/2 102/67/2
f 103/69/2 90/70/2 91/68/2
f 104/71/2 90/70/2 103/69/2
f 104/71/2 89/72/2 90/70/2
f 105/73/2 89/72/2 104/71/2
f 105/73/2 88/74/2 89/72/2
f 106/75/2 88/74/2 105/73/2
f 106/75/2 87/76/2 88/74/2
f 107/77/2 87/76/2 106/75/2
f 107/77/2 86/78/2 87/76/2
f 108/79/2 86/78/2 107/77/2
f 108/79/2 85/80/2 86/78/2
f 57/81/2 85/80/2 108/79/2
f 57/81/2 84/82/2 85/80/2
f 112/83/2 83/84/2 84/82/2
f 57/81/2 112/83/2 84/82/2
f 111/85/2 112/83/2 57/81/2
f 58/86/2 111/85/2 57/81/2
f 109/87/2 83/84/2 112/83/2
f 58/86/2 110/88/2 111/85/2
f 110/88/2 83/84/2 109/87/2
f 58/86/2 83/84/2 110/88/2
f 58/86/2 82/89/2 83/84/2
f 59/90/2 82/89/2 58/86/2
f 59/90/2 81/91/2 82/89/2
f 60/92/2 81/91/2 59/90/2
f 60/92/2 80/93/2 81/91/2
f 61/94/2 80/93/2 60/92/2
f 61/94/2 79/95/2 80/93/2
f 62/96/2 79/95/2 61/94/2
f 62/96/2 78/97/2 79/95/2
f 63/98/2 78/97/2 62/96/2
f 63/98/2 77/99/2 78/97/2
f 64/100/2 77/99/2 63/98/2
f 65/101/2 77/99/2 64/100/2
f 65/101/2 76/102/2 77/99/2
f 66/103/2 76/102/2 65/101/2
f 66/103/2 75/104/2 76/102/2
f 67/105/2 75/104/2 66/103/2
f 67/105/2 74/106/2 75/104/2
f 68/107/2 74/106/2 67/105/2
f 68/107/2 73/108/2 74/106/2
f 69/109/2 73/108/2 68/107/2
f 69/109/2 72/110/2 73/108/2
f 70/111/2 72/110/2 69/109/2
f 70/111/2 71/112/2 72/110/2
s 1
f 116/113/3 113/114/4 114/115/4
f 118/116/5 115/117/3 116/113/3
f 120/118/6 117/119/5 118/116/5
f 122/120/7 119/121/6 120/118/6
f 124/122/8 121/123/7 122/120/7
f 126/124/9 123/125/8 124/122/8
f 128/126/10 125/127/9 126/124/9
f 130/128/11 127/129/10 128/126/10
f 132/130/12 129/131/11 130/128/11
f 134/132/13 131/133/12 132/130/12
f 136/134/14 133/135/13 134/132/13
f 138/136/15 135/137/14 136/134/14
f 140/138/16 137/139/15 138/136/15
f 142/140/17 139/141/16 140/138/16
f 144/142/18 141/143/17 142/140/17
f 146/144/19 143/145/18 144/142/18
f 148/146/20 145/147/19 146/144/19
f 150/148/21 147/149/20 148/146/20
f 152/150/22 149/151/21 150/148/21
f 154/152/23 151/153/22 152/150/22
f 156/154/24 153/155/23 154/152/23
f 158/156/25 155/157/24 156/154/24
f 160/158/26 157/159/25 158/156/25
f 162/160/27 159/161/26 160/158/26
f 164/162/28 161/163/27 162/160/27
f 166/164/29 163/165/28 164/162/28
f 168/166/30 165/167/29 166/164/29
f 170/168/31 167/169/30 168/166/30
f 172/170/32 169/171/31 170/168/31
f 174/172/33 171/173/32 172/170/32
f 176/174/34 173/175/33 174/172/33
f 178/176/35 175/177/34 176/174/34
f 180/178/36 177/179/35 178/176/35
f 182/180/37 179/181/36 180/178/36
f 184/182/38 181/183/37 182/180/37
f 186/184/39 183/185/38 184/182/38
f 188/186/40 185/187/39 186/184/39
f 190/188/41 187/189/40 188/186/40
f 192/190/42 189/191/41 190/188/41
f 194/192/43 191/193/42 192/190/42
f 196/194/44 193/195/43 194/192/43
f 198/196/45 195/197/44 196/194/44
f 200/198/46 197/199/45 198/196/45
f 202/200/47 199/201/48 200/198/46
f 204/202/49 201/203/50 202/200/47
f 206/204/51 203/205/49 204/202/49
f 208/206/52 205/207/51 206/204/51
f 210/208/53 207/209/52 208/206/52
f 212/210/54 209/211/55 210/208/53
f 214/212/56 211/213/54 212/210/54
f 216/214/57 213/215/56 214/212/56
f 114/216/4 215/217/57 216/214/57
f 220/218/58 217/219/59 218/220/59
f 222/221/60 219/222/58 220/218/58
f 224/223/61 221/224/60 222/221/60
f 218/225/59 223/226/61 224/223/61
f 116/113/3 115/117/3 113/114/4
f 118/116/5 117/119/5 115/117/3
f 120/118/6 119/121/6 117/119/5
f 122/120/7 121/123/7 119/121/6
f 124/122/8 123/125/8 121/123/7
f 126/124/9 125/127/9 123/125/8
f 128/126/10 127/129/10 125/127/9
f 130/128/11 129/131/11 127/129/10
f 132/130/12 131/133/12 129/131/11
f 134/132/13 133/135/13 131/133/12
f 136/134/14 135/137/14 133/135/13
f 138/136/15 137/139/15 135/137/14
f 140/138/16 139/141/16 137/139/15
f 142/140/17 141/143/17 139/141/16
f 144/142/18 143/145/18 141/143/17
f 146/144/19 145/147/19 143/145/18
f 148/146/20 147/149/20 145/147/19
f 150/148/21 149/151/21 147/149/20
f 152/150/22 151/153/22 149/151/21
f 154/152/23 153/155/23 151/153/22
f 156/154/24 155/157/24 153/155/23
f 158/156/25 157/159/25 155/157/24
f 160/158/26 159/161/26 157/159/25
f 162/160/27 161/163/27 159/161/26
f 164/162/28 163/165/28 161/163/27
f 166/164/29 165/167/29 163/165/28
f 168/166/30 167/169/30 165/167/29
f 170/168/31 169/171/31 167/169/30
f 172/170/32 171/173/32 169/171/31
f 174/172/33 173/175/33 171/173/32
f 176/174/34 175/177/34 173/175/33
f 178/176/35 177/179/35 175/177/34
f 180/178/36 179/181/36 177/179/35
f 182/180/37 181/183/37 179/181/36
f 184/182/38 183/185/38 181/183/37
f 186/184/39 185/187/39 183/185/38
f 188/186/40 187/189/40 185/187/39
f 190/188/41 189/191/41 187/189/40
f 192/190/42 191/193/42 189/191/41
f 194/192/43 193/195/43 191/193/42
f 196/194/44 195/197/44 193/195/43
f 198/196/45 197/199/45 195/197/44
f 200/198/46 199/201/48 197/199/45
f 202/200/47 201/203/50 199/201/48
f 204/202/49 203/205/49 201/203/50
f 206/204/51 205/207/51 203/205/49
f 208/206/52 207/209/52 205/207/51
f 210/208/53 209/211/55 207/209/52
f 212/210/54 211/213/54 209/211/55
f 214/212/56 213/215/56 211/213/54
f 216/214/57 215/217/57 213/215/56
f 114/216/4 113/227/4 215/217/57
f 220/218/58 219/222/58 217/219/59
f 222/221/60 221/224/60 219/222/58
f 224/223/61 223/226/61 221/224/60
f 218/225/59 217/228/59 223/226/61
