# Blender v2.90.0 OBJ File: ''
# www.blender.org
mtllib 1.mtl
o Text
v 0.020000 0.641307 -0.049961
v 0.020000 0.003053 -0.049961
v 0.020000 0.003053 0.043840
v 0.020000 0.453297 0.043840
v 0.020000 0.453297 0.080545
v 0.020000 0.465940 0.080545
v 0.020000 0.641307 0.031197
v -0.020000 0.641307 -0.049961
v -0.020000 0.003053 -0.049961
v -0.020000 0.003053 0.043840
v -0.020000 0.453297 0.043840
v -0.020000 0.453297 0.080545
v -0.020000 0.465940 0.080545
v -0.020000 0.641307 0.031197
v -0.020000 0.641307 -0.049961
v 0.020000 0.641307 -0.049961
v -0.020000 0.003053 -0.049961
v 0.020000 0.003053 -0.049961
v -0.020000 0.003053 0.043840
v 0.020000 0.003053 0.043840
v -0.020000 0.453297 0.043840
v 0.020000 0.453297 0.043840
v -0.020000 0.453297 0.080545
v 0.020000 0.453297 0.080545
v -0.020000 0.465940 0.080545
v 0.020000 0.465940 0.080545
v -0.020000 0.641307 0.031197
v 0.020000 0.641307 0.031197
vt 0.833333 0.000000
vt 0.000000 0.000000
vt 1.000000 0.000000
vt 0.500000 0.000000
vt 0.166667 0.000000
vt 0.666667 0.000000
vt 0.333333 0.000000
vt 0.000000 0.000000
vt 0.833333 0.000000
vt 1.000000 0.000000
vt 0.500000 0.000000
vt 0.166667 0.000000
vt 0.666667 0.000000
vt 0.333333 0.000000
vt 0.142857 1.000000
vt 0.000000 0.000000
vt 0.000000 1.000000
vt 0.285714 1.000000
vt 0.142857 0.000000
vt 0.428571 1.000000
vt 0.285714 0.000000
vt 0.571429 1.000000
vt 0.428571 0.000000
vt 0.714286 1.000000
vt 0.571429 0.000000
vt 0.857143 1.000000
vt 0.714286 0.000000
vt 1.000000 1.000000
vt 0.857143 0.000000
vt 1.000000 0.000000
vn 1.0000 -0.0000 -0.0000
vn -1.0000 0.0000 0.0000
vn 0.0000 -0.7071 -0.7071
vn 0.0000 0.7071 -0.7071
vn 0.0000 -0.7071 0.7071
vn 0.0000 0.1367 0.9906
vn 0.0000 0.7971 0.6038
usemtl None
s off
f 6/1/1 1/2/1 7/3/1
f 6/1/1 4/4/1 1/2/1
f 4/4/1 2/5/1 1/2/1
f 5/6/1 4/4/1 6/1/1
f 3/7/1 2/5/1 4/4/1
f 8/8/2 13/9/2 14/10/2
f 11/11/2 13/9/2 8/8/2
f 9/12/2 11/11/2 8/8/2
f 11/11/2 12/13/2 13/9/2
f 9/12/2 10/14/2 11/11/2
s 1
f 18/15/3 15/16/4 16/17/4
f 20/18/5 17/19/3 18/15/3
f 22/20/5 19/21/5 20/18/5
f 24/22/5 21/23/5 22/20/5
f 26/24/6 23/25/5 24/22/5
f 28/26/7 25/27/6 26/24/6
f 16/28/4 27/29/7 28/26/7
f 18/15/3 17/19/3 15/16/4
f 20/18/5 19/21/5 17/19/3
f 22/20/5 21/23/5 19/21/5
f 24/22/5 23/25/5 21/23/5
f 26/24/6 25/27/6 23/25/5
f 28/26/7 27/29/7 25/27/6
f 16/28/4 15/30/4 27/29/7
