# Blender v2.90.0 OBJ File: ''
# www.blender.org
mtllib 5.mtl
o Text
v 0.020000 0.354602 -0.239602
v 0.020000 0.061372 -0.239602
v 0.020000 0.052057 -0.239200
v 0.020000 0.043552 -0.237993
v 0.020000 0.035858 -0.235983
v 0.020000 0.028973 -0.233167
v 0.020000 0.022898 -0.229548
v 0.020000 0.017633 -0.225124
v 0.020000 0.013178 -0.219896
v 0.020000 0.009533 -0.213863
v 0.020000 0.006698 -0.207027
v 0.020000 0.004673 -0.199385
v 0.020000 0.003458 -0.190940
v 0.020000 0.003053 -0.181690
v 0.020000 0.003053 0.009582
v 0.020000 0.003458 0.018637
v 0.020000 0.004673 0.026904
v 0.020000 0.006698 0.034383
v 0.020000 0.009533 0.041076
v 0.020000 0.013178 0.046981
v 0.020000 0.017633 0.052099
v 0.020000 0.022898 0.056429
v 0.020000 0.028973 0.059972
v 0.020000 0.035858 0.062728
v 0.020000 0.043552 0.064696
v 0.020000 0.052057 0.065877
v 0.020000 0.061372 0.066271
v 0.020000 0.208599 0.066271
v 0.020000 0.208599 -0.027530
v 0.020000 0.085027 -0.027530
v 0.020000 0.085027 -0.145801
v 0.020000 0.330540 -0.145801
v 0.020000 0.330540 0.066271
v 0.020000 0.641307 0.056075
v 0.020000 0.641307 -0.235116
v 0.020000 0.557702 -0.235116
v 0.020000 0.557702 -0.032424
v 0.020000 0.412514 -0.026307
v 0.020000 0.412514 -0.181690
v 0.020000 0.412112 -0.190940
v 0.020000 0.410906 -0.199385
v 0.020000 0.408895 -0.207027
v 0.020000 0.406080 -0.213863
v 0.020000 0.402460 -0.219896
v 0.020000 0.398036 -0.225124
v 0.020000 0.392808 -0.229548
v 0.020000 0.386776 -0.233167
v 0.020000 0.379939 -0.235983
v 0.020000 0.372298 -0.237993
v 0.020000 0.363852 -0.239200
v -0.020000 0.354602 -0.239602
v -0.020000 0.061372 -0.239602
v -0.020000 0.052057 -0.239200
v -0.020000 0.043552 -0.237993
v -0.020000 0.035858 -0.235983
v -0.020000 0.028973 -0.233167
v -0.020000 0.022898 -0.229548
v -0.020000 0.017633 -0.225124
v -0.020000 0.013178 -0.219896
v -0.020000 0.009533 -0.213863
v -0.020000 0.006698 -0.207027
v -0.020000 0.004673 -0.199385
v -0.020000 0.003458 -0.190940
v -0.020000 0.003053 -0.181690
v -0.020000 0.003053 0.009582
v -0.020000 0.003458 0.018637
v -0.020000 0.004673 0.026904
v -0.020000 0.006698 0.034383
v -0.020000 0.009533 0.041076
v -0.020000 0.013178 0.046981
v -0.020000 0.017633 0.052099
v -0.020000 0.022898 0.056429
v -0.020000 0.028973 0.059972
v -0.020000 0.035858 0.062728
v -0.020000 0.043552 0.064696
v -0.020000 0.052057 0.065877
v -0.020000 0.061372 0.066271
v -0.020000 0.208599 0.066271
v -0.020000 0.208599 -0.027530
v -0.020000 0.085027 -0.027530
v -0.020000 0.085027 -0.145801
v -0.020000 0.330540 -0.145801
v -0.020000 0.330540 0.066271
v -0.020000 0.641307 0.056075
v -0.020000 0.641307 -0.235116
v -0.020000 0.557702 -0.235116
v -0.020000 0.557702 -0.032424
v -0.020000 0.412514 -0.026307
v -0.020000 0.412514 -0.181690
v -0.020000 0.412112 -0.190940
v -0.020000 0.410906 -0.199385
v -0.020000 0.408895 -0.207027
v -0.020000 0.406080 -0.213863
v -0.020000 0.402460 -0.219896
v -0.020000 0.398036 -0.225124
v -0.020000 0.392808 -0.229548
v -0.020000 0.386776 -0.233167
v -0.020000 0.379939 -0.235983
v -0.020000 0.372298 -0.237993
v -0.020000 0.363852 -0.239200
v -0.020000 0.354602 -0.239602
v 0.020000 0.354602 -0.239602
v -0.020000 0.061372 -0.239602
v 0.020000 0.061372 -0.239602
v -0.020000 0.052057 -0.239200
v 0.020000 0.052057 -0.239200
v -0.020000 0.043552 -0.237993
v 0.020000 0.043552 -0.237993
v -0.020000 0.035858 -0.235983
v 0.020000 0.035858 -0.235983
v -0.020000 0.028973 -0.233167
v 0.020000 0.028973 -0.233167
v -0.020000 0.022898 -0.229548
v 0.020000 0.022898 -0.229548
v -0.020000 0.017633 -0.225124
v 0.020000 0.017633 -0.225124
v -0.020000 0.013178 -0.219896
v 0.020000 0.013178 -0.219896
v -0.020000 0.009533 -0.213863
v 0.020000 0.009533 -0.213863
v -0.020000 0.006698 -0.207027
v 0.020000 0.006698 -0.207027
v -0.020000 0.004673 -0.199385
v 0.020000 0.004673 -0.199385
v -0.020000 0.003458 -0.190940
v 0.020000 0.003458 -0.190940
v -0.020000 0.003053 -0.181690
v 0.020000 0.003053 -0.181690
v -0.020000 0.003053 0.009582
v 0.020000 0.003053 0.009582
v -0.020000 0.003458 0.018637
v 0.020000 0.003458 0.018637
v -0.020000 0.004673 0.026904
v 0.020000 0.004673 0.026904
v -0.020000 0.006698 0.034383
v 0.020000 0.006698 0.034383
v -0.020000 0.009533 0.041076
v 0.020000 0.009533 0.041076
v -0.020000 0.013178 0.046981
v 0.020000 0.013178 0.046981
v -0.020000 0.017633 0.052099
v 0.020000 0.017633 0.052099
v -0.020000 0.022898 0.056429
v 0.020000 0.022898 0.056429
v -0.020000 0.028973 0.059972
v 0.020000 0.028973 0.059972
v -0.020000 0.035858 0.062728
v 0.020000 0.035858 0.062728
v -0.020000 0.043552 0.064696
v 0.020000 0.043552 0.064696
v -0.020000 0.052057 0.065877
v 0.020000 0.052057 0.065877
v -0.020000 0.061372 0.066271
v 0.020000 0.061372 0.066271
v -0.020000 0.208599 0.066271
v 0.020000 0.208599 0.066271
v -0.020000 0.208599 -0.027530
v 0.020000 0.208599 -0.027530
v -0.020000 0.085027 -0.027530
v 0.020000 0.085027 -0.027530
v -0.020000 0.085027 -0.145801
v 0.020000 0.085027 -0.145801
v -0.020000 0.330540 -0.145801
v 0.020000 0.330540 -0.145801
v -0.020000 0.330540 0.066271
v 0.020000 0.330540 0.066271
v -0.020000 0.641307 0.056075
v 0.020000 0.641307 0.056075
v -0.020000 0.641307 -0.235116
v 0.020000 0.641307 -0.235116
v -0.020000 0.557702 -0.235116
v 0.020000 0.557702 -0.235116
v -0.020000 0.557702 -0.032424
v 0.020000 0.557702 -0.032424
v -0.020000 0.412514 -0.026307
v 0.020000 0.412514 -0.026307
v -0.020000 0.412514 -0.181690
v 0.020000 0.412514 -0.181690
v -0.020000 0.412112 -0.190940
v 0.020000 0.412112 -0.190940
v -0.020000 0.410906 -0.199385
v 0.020000 0.410906 -0.199385
v -0.020000 0.408895 -0.207027
v 0.020000 0.408895 -0.207027
v -0.020000 0.406080 -0.213863
v 0.020000 0.406080 -0.213863
v -0.020000 0.402460 -0.219896
v 0.020000 0.402460 -0.219896
v -0.020000 0.398036 -0.225124
v 0.020000 0.398036 -0.225124
v -0.020000 0.392808 -0.229548
v 0.020000 0.392808 -0.229548
v -0.020000 0.386776 -0.233167
v 0.020000 0.386776 -0.233167
v -0.020000 0.379939 -0.235983
v 0.020000 0.379939 -0.235983
v -0.020000 0.372298 -0.237993
v 0.020000 0.372298 -0.237993
v -0.020000 0.363852 -0.239200
v 0.020000 0.363852 -0.239200
vt 0.653061 0.000000
vt 0.734694 0.000000
vt 0.673469 0.000000
vt 0.693878 0.000000
vt 0.714286 0.000000
vt 0.755102 0.000000
vt 0.775510 0.000000
vt 0.795918 0.000000
vt 0.816327 0.000000
vt 0.836735 0.000000
vt 0.857143 0.000000
vt 0.877551 0.000000
vt 0.897959 0.000000
vt 0.918367 0.000000
vt 0.938776 0.000000
vt 0.959184 0.000000
vt 0.979592 0.000000
vt 1.000000 0.000000
vt 0.000000 0.000000
vt 0.632653 0.000000
vt 0.020408 0.000000
vt 0.612245 0.000000
vt 0.530612 0.000000
vt 0.571429 0.000000
vt 0.551020 0.000000
vt 0.591837 0.000000
vt 0.510204 0.000000
vt 0.040816 0.000000
vt 0.489796 0.000000
vt 0.061224 0.000000
vt 0.469388 0.000000
vt 0.081633 0.000000
vt 0.448980 0.000000
vt 0.102041 0.000000
vt 0.428571 0.000000
vt 0.122449 0.000000
vt 0.408163 0.000000
vt 0.142857 0.000000
vt 0.163265 0.000000
vt 0.387755 0.000000
vt 0.183673 0.000000
vt 0.367347 0.000000
vt 0.204082 0.000000
vt 0.346939 0.000000
vt 0.224490 0.000000
vt 0.326531 0.000000
vt 0.244898 0.000000
vt 0.306122 0.000000
vt 0.265306 0.000000
vt 0.285714 0.000000
vt 0.734694 0.000000
vt 0.653061 0.000000
vt 0.673469 0.000000
vt 0.693878 0.000000
vt 0.714286 0.000000
vt 0.755102 0.000000
vt 0.775510 0.000000
vt 0.795918 0.000000
vt 0.816327 0.000000
vt 0.836735 0.000000
vt 0.857143 0.000000
vt 0.877551 0.000000
vt 0.897959 0.000000
vt 0.918367 0.000000
vt 0.938776 0.000000
vt 0.959184 0.000000
vt 0.979592 0.000000
vt 1.000000 0.000000
vt 0.000000 0.000000
vt 0.632653 0.000000
vt 0.020408 0.000000
vt 0.612245 0.000000
vt 0.571429 0.000000
vt 0.530612 0.000000
vt 0.551020 0.000000
vt 0.591837 0.000000
vt 0.510204 0.000000
vt 0.040816 0.000000
vt 0.489796 0.000000
vt 0.061224 0.000000
vt 0.469388 0.000000
vt 0.081633 0.000000
vt 0.448980 0.000000
vt 0.102041 0.000000
vt 0.428571 0.000000
vt 0.122449 0.000000
vt 0.408163 0.000000
vt 0.142857 0.000000
vt 0.163265 0.000000
vt 0.387755 0.000000
vt 0.183673 0.000000
vt 0.367347 0.000000
vt 0.204082 0.000000
vt 0.346939 0.000000
vt 0.224490 0.000000
vt 0.326531 0.000000
vt 0.244898 0.000000
vt 0.306122 0.000000
vt 0.265306 0.000000
vt 0.285714 0.000000
vt 0.020000 1.000000
vt 0.000000 0.000000
vt 0.000000 1.000000
vt 0.040000 1.000000
vt 0.020000 0.000000
vt 0.060000 1.000000
vt 0.040000 0.000000
vt 0.080000 1.000000
vt 0.060000 0.000000
vt 0.100000 1.000000
vt 0.080000 0.000000
vt 0.120000 1.000000
vt 0.100000 0.000000
vt 0.140000 1.000000
vt 0.120000 0.000000
vt 0.160000 1.000000
vt 0.140000 0.000000
vt 0.180000 1.000000
vt 0.160000 0.000000
vt 0.200000 1.000000
vt 0.180000 0.000000
vt 0.220000 1.000000
vt 0.200000 0.000000
vt 0.240000 1.000000
vt 0.220000 0.000000
vt 0.260000 1.000000
vt 0.240000 0.000000
vt 0.280000 1.000000
vt 0.260000 0.000000
vt 0.300000 1.000000
vt 0.280000 0.000000
vt 0.320000 1.000000
vt 0.300000 0.000000
vt 0.340000 1.000000
vt 0.320000 0.000000
vt 0.360000 1.000000
vt 0.340000 0.000000
vt 0.380000 1.000000
vt 0.360000 0.000000
vt 0.400000 1.000000
vt 0.380000 0.000000
vt 0.420000 1.000000
vt 0.400000 0.000000
vt 0.440000 1.000000
vt 0.420000 0.000000
vt 0.460000 1.000000
vt 0.440000 0.000000
vt 0.480000 1.000000
vt 0.460000 0.000000
vt 0.500000 1.000000
vt 0.480000 0.000000
vt 0.520000 1.000000
vt 0.500000 0.000000
vt 0.540000 1.000000
vt 0.520000 0.000000
vt 0.560000 1.000000
vt 0.540000 0.000000
vt 0.580000 1.000000
vt 0.560000 0.000000
vt 0.600000 1.000000
vt 0.580000 0.000000
vt 0.620000 1.000000
vt 0.600000 0.000000
vt 0.640000 1.000000
vt 0.620000 0.000000
vt 0.660000 1.000000
vt 0.640000 0.000000
vt 0.680000 1.000000
vt 0.660000 0.000000
vt 0.700000 1.000000
vt 0.680000 0.000000
vt 0.720000 1.000000
vt 0.700000 0.000000
vt 0.740000 1.000000
vt 0.720000 0.000000
vt 0.760000 1.000000
vt 0.740000 0.000000
vt 0.780000 1.000000
vt 0.760000 0.000000
vt 0.800000 1.000000
vt 0.780000 0.000000
vt 0.820000 1.000000
vt 0.800000 0.000000
vt 0.840000 1.000000
vt 0.820000 0.000000
vt 0.860000 1.000000
vt 0.840000 0.000000
vt 0.880000 1.000000
vt 0.860000 0.000000
vt 0.900000 1.000000
vt 0.880000 0.000000
vt 0.920000 1.000000
vt 0.900000 0.000000
vt 0.940000 1.000000
vt 0.920000 0.000000
vt 0.960000 1.000000
vt 0.940000 0.000000
vt 0.980000 1.000000
vt 0.960000 0.000000
vt 1.000000 1.000000
vt 0.980000 0.000000
vt 1.000000 0.000000
vn 1.0000 -0.0000 -0.0000
vn -1.0000 0.0000 0.0000
vn 0.0000 -0.0215 -0.9998
vn 0.0000 0.0217 -0.9998
vn 0.0000 -0.0919 -0.9958
vn 0.0000 -0.1969 -0.9804
vn 0.0000 -0.3163 -0.9486
vn 0.0000 -0.4464 -0.8948
vn 0.0000 -0.5795 -0.8150
vn 0.0000 -0.7046 -0.7095
vn 0.0000 -0.8112 -0.5848
vn 0.0000 -0.8923 -0.4514
vn 0.0000 -0.9473 -0.3203
vn 0.0000 -0.9799 -0.1996
vn 0.0000 -0.9956 -0.0932
vn 0.0000 -0.9998 -0.0219
vn 0.0000 -0.9997 0.0223
vn 0.0000 -0.9955 0.0952
vn 0.0000 -0.9790 0.2037
vn 0.0000 -0.9452 0.3264
vn 0.0000 -0.8884 0.4590
vn 0.0000 -0.8053 0.5929
vn 0.0000 -0.6971 0.7169
vn 0.0000 -0.5713 0.8207
vn 0.0000 -0.4389 0.8985
vn 0.0000 -0.3103 0.9506
vn 0.0000 -0.1930 0.9812
vn 0.0000 -0.0900 0.9959
vn 0.0000 -0.0211 0.9998
vn 0.0000 0.7071 0.7071
vn 0.0000 0.7071 -0.7071
vn 0.0000 -0.7071 0.7071
vn 0.0000 -0.6954 0.7186
vn 0.0000 0.7186 0.6954
vn 0.0000 -0.7071 -0.7071
vn 0.0000 -0.7218 -0.6920
vn 0.0000 0.6920 -0.7218
vn 0.0000 0.9998 -0.0217
vn 0.0000 0.9957 -0.0925
vn 0.0000 0.9801 -0.1983
vn 0.0000 0.9480 -0.3183
vn 0.0000 0.8936 -0.4489
vn 0.0000 0.8131 -0.5821
vn 0.0000 0.5821 -0.8131
vn 0.0000 0.4489 -0.8936
vn 0.0000 0.3183 -0.9480
vn 0.0000 0.1983 -0.9801
vn 0.0000 0.0925 -0.9957
usemtl None
s off
f 33/1/1 37/2/1 34/3/1
f 37/2/1 35/4/1 34/3/1
f 37/2/1 36/5/1 35/4/1
f 33/1/1 38/6/1 37/2/1
f 33/1/1 39/7/1 38/6/1
f 33/1/1 40/8/1 39/7/1
f 33/1/1 41/9/1 40/8/1
f 33/1/1 42/10/1 41/9/1
f 33/1/1 43/11/1 42/10/1
f 33/1/1 44/12/1 43/11/1
f 33/1/1 45/13/1 44/12/1
f 33/1/1 46/14/1 45/13/1
f 33/1/1 47/15/1 46/14/1
f 33/1/1 48/16/1 47/15/1
f 33/1/1 49/17/1 48/16/1
f 33/1/1 50/18/1 49/17/1
f 33/1/1 1/19/1 50/18/1
f 33/1/1 32/20/1 1/19/1
f 32/20/1 2/21/1 1/19/1
f 31/22/1 2/21/1 32/20/1
f 27/23/1 29/24/1 28/25/1
f 27/23/1 30/26/1 29/24/1
f 27/23/1 31/22/1 30/26/1
f 27/23/1 2/21/1 31/22/1
f 26/27/1 2/21/1 27/23/1
f 26/27/1 3/28/1 2/21/1
f 25/29/1 3/28/1 26/27/1
f 25/29/1 4/30/1 3/28/1
f 24/31/1 4/30/1 25/29/1
f 24/31/1 5/32/1 4/30/1
f 23/33/1 5/32/1 24/31/1
f 23/33/1 6/34/1 5/32/1
f 22/35/1 6/34/1 23/33/1
f 22/35/1 7/36/1 6/34/1
f 21/37/1 7/36/1 22/35/1
f 21/37/1 8/38/1 7/36/1
f 21/37/1 9/39/1 8/38/1
f 20/40/1 9/39/1 21/37/1
f 20/40/1 10/41/1 9/39/1
f 19/42/1 10/41/1 20/40/1
f 19/42/1 11/43/1 10/41/1
f 18/44/1 11/43/1 19/42/1
f 18/44/1 12/45/1 11/43/1
f 17/46/1 12/45/1 18/44/1
f 17/46/1 13/47/1 12/45/1
f 16/48/1 13/47/1 17/46/1
f 16/48/1 14/49/1 13/47/1
f 15/50/1 14/49/1 16/48/1
f 87/51/2 83/52/2 84/53/2
f 85/54/2 87/51/2 84/53/2
f 86/55/2 87/51/2 85/54/2
f 88/56/2 83/52/2 87/51/2
f 89/57/2 83/52/2 88/56/2
f 90/58/2 83/52/2 89/57/2
f 91/59/2 83/52/2 90/58/2
f 92/60/2 83/52/2 91/59/2
f 93/61/2 83/52/2 92/60/2
f 94/62/2 83/52/2 93/61/2
f 95/63/2 83/52/2 94/62/2
f 96/64/2 83/52/2 95/63/2
f 97/65/2 83/52/2 96/64/2
f 98/66/2 83/52/2 97/65/2
f 99/67/2 83/52/2 98/66/2
f 100/68/2 83/52/2 99/67/2
f 51/69/2 83/52/2 100/68/2
f 82/70/2 83/52/2 51/69/2
f 52/71/2 82/70/2 51/69/2
f 52/71/2 81/72/2 82/70/2
f 79/73/2 77/74/2 78/75/2
f 80/76/2 77/74/2 79/73/2
f 81/72/2 77/74/2 80/76/2
f 52/71/2 77/74/2 81/72/2
f 52/71/2 76/77/2 77/74/2
f 53/78/2 76/77/2 52/71/2
f 53/78/2 75/79/2 76/77/2
f 54/80/2 75/79/2 53/78/2
f 54/80/2 74/81/2 75/79/2
f 55/82/2 74/81/2 54/80/2
f 55/82/2 73/83/2 74/81/2
f 56/84/2 73/83/2 55/82/2
f 56/84/2 72/85/2 73/83/2
f 57/86/2 72/85/2 56/84/2
f 57/86/2 71/87/2 72/85/2
f 58/88/2 71/87/2 57/86/2
f 59/89/2 71/87/2 58/88/2
f 59/89/2 70/90/2 71/87/2
f 60/91/2 70/90/2 59/89/2
f 60/91/2 69/92/2 70/90/2
f 61/93/2 69/92/2 60/91/2
f 61/93/2 68/94/2 69/92/2
f 62/95/2 68/94/2 61/93/2
f 62/95/2 67/96/2 68/94/2
f 63/97/2 67/96/2 62/95/2
f 63/97/2 66/98/2 67/96/2
f 64/99/2 66/98/2 63/97/2
f 64/99/2 65/100/2 66/98/2
s 1
f 104/101/3 101/102/4 102/103/4
f 106/104/5 103/105/3 104/101/3
f 108/106/6 105/107/5 106/104/5
f 110/108/7 107/109/6 108/106/6
f 112/110/8 109/111/7 110/108/7
f 114/112/9 111/113/8 112/110/8
f 116/114/10 113/115/9 114/112/9
f 118/116/11 115/117/10 116/114/10
f 120/118/12 117/119/11 118/116/11
f 122/120/13 119/121/12 120/118/12
f 124/122/14 121/123/13 122/120/13
f 126/124/15 123/125/14 124/122/14
f 128/126/16 125/127/15 126/124/15
f 130/128/17 127/129/16 128/126/16
f 132/130/18 129/131/17 130/128/17
f 134/132/19 131/133/18 132/130/18
f 136/134/20 133/135/19 134/132/19
f 138/136/21 135/137/20 136/134/20
f 140/138/22 137/139/21 138/136/21
f 142/140/23 139/141/22 140/138/22
f 144/142/24 141/143/23 142/140/23
f 146/144/25 143/145/24 144/142/24
f 148/146/26 145/147/25 146/144/25
f 150/148/27 147/149/26 148/146/26
f 152/150/28 149/151/27 150/148/27
f 154/152/29 151/153/28 152/150/28
f 156/154/30 153/155/29 154/152/29
f 158/156/31 155/157/30 156/154/30
f 160/158/31 157/159/31 158/156/31
f 162/160/30 159/161/31 160/158/31
f 164/162/32 161/163/30 162/160/30
f 166/164/33 163/165/32 164/162/32
f 168/166/34 165/167/33 166/164/33
f 170/168/31 167/169/34 168/166/34
f 172/170/35 169/171/31 170/168/31
f 174/172/36 171/173/35 172/170/35
f 176/174/37 173/175/36 174/172/36
f 178/176/38 175/177/37 176/174/37
f 180/178/39 177/179/38 178/176/38
f 182/180/40 179/181/39 180/178/39
f 184/182/41 181/183/40 182/180/40
f 186/184/42 183/185/41 184/182/41
f 188/186/43 185/187/42 186/184/42
f 190/188/31 187/189/43 188/186/43
f 192/190/44 189/191/31 190/188/31
f 194/192/45 191/193/44 192/190/44
f 196/194/46 193/195/45 194/192/45
f 198/196/47 195/197/46 196/194/46
f 200/198/48 197/199/47 198/196/47
f 102/200/4 199/201/48 200/198/48
f 104/101/3 103/105/3 101/102/4
f 106/104/5 105/107/5 103/105/3
f 108/106/6 107/109/6 105/107/5
f 110/108/7 109/111/7 107/109/6
f 112/110/8 111/113/8 109/111/7
f 114/112/9 113/115/9 111/113/8
f 116/114/10 115/117/10 113/115/9
f 118/116/11 117/119/11 115/117/10
f 120/118/12 119/121/12 117/119/11
f 122/120/13 121/123/13 119/121/12
f 124/122/14 123/125/14 121/123/13
f 126/124/15 125/127/15 123/125/14
f 128/126/16 127/129/16 125/127/15
f 130/128/17 129/131/17 127/129/16
f 132/130/18 131/133/18 129/131/17
f 134/132/19 133/135/19 131/133/18
f 136/134/20 135/137/20 133/135/19
f 138/136/21 137/139/21 135/137/20
f 140/138/22 139/141/22 137/139/21
f 142/140/23 141/143/23 139/141/22
f 144/142/24 143/145/24 141/143/23
f 146/144/25 145/147/25 143/145/24
f 148/146/26 147/149/26 145/147/25
f 150/148/27 149/151/27 147/149/26
f 152/150/28 151/153/28 149/151/27
f 154/152/29 153/155/29 151/153/28
f 156/154/30 155/157/30 153/155/29
f 158/156/31 157/159/31 155/157/30
f 160/158/31 159/161/31 157/159/31
f 162/160/30 161/163/30 159/161/31
f 164/162/32 163/165/32 161/163/30
f 166/164/33 165/167/33 163/165/32
f 168/166/34 167/169/34 165/167/33
f 170/168/31 169/171/31 167/169/34
f 172/170/35 171/173/35 169/171/31
f 174/172/36 173/175/36 171/173/35
f 176/174/37 175/177/37 173/175/36
f 178/176/38 177/179/38 175/177/37
f 180/178/39 179/181/39 177/179/38
f 182/180/40 181/183/40 179/181/39
f 184/182/41 183/185/41 181/183/40
f 186/184/42 185/187/42 183/185/41
f 188/186/43 187/189/43 185/187/42
f 190/188/31 189/191/31 187/189/43
f 192/190/44 191/193/44 189/191/31
f 194/192/45 193/195/45 191/193/44
f 196/194/46 195/197/46 193/195/45
f 198/196/47 197/199/47 195/197/46
f 200/198/48 199/201/48 197/199/47
f 102/200/4 101/202/4 199/201/48
